<svg width="96" height="30" viewBox="0 0 96 30" fill="none" xmlns="http://www.w3.org/2000/svg">
<path d="M81.0818 12.6819C81.2896 12.6819 81.4679 12.6819 81.6461 12.6819C82.3014 12.6819 82.9567 12.6742 83.6117 12.6864C83.8217 12.6903 83.9343 12.6124 84.0359 12.4362C84.9796 10.7994 85.9311 9.167 86.8823 7.53443C87.1242 7.11925 87.3733 6.70815 87.6184 6.29475C87.6635 6.21862 87.7193 6.1463 87.7243 6.0511C87.6365 5.95785 87.5199 5.96951 87.4093 5.97004C86.6867 5.97356 85.9641 5.97849 85.2415 5.98616C85.1727 5.9869 85.1023 6.00466 85.0614 5.93382C85.0261 5.87283 85.0825 5.83215 85.1092 5.78655C85.8371 4.54134 86.5653 3.29626 87.2935 2.05119C87.412 1.84853 87.5386 1.64995 87.6463 1.44182C87.7215 1.29646 87.8157 1.23551 87.988 1.23584C90.6202 1.24134 93.2524 1.23993 95.8846 1.24087C95.9168 1.24087 95.9489 1.25038 95.9844 1.25598C96.0386 1.37584 95.9384 1.44531 95.8926 1.52419C95.3589 2.44372 94.8156 3.35785 94.2848 4.27899C93.7435 5.21823 93.2189 6.16691 92.6768 7.10568C92.0394 8.20934 91.3904 9.3064 90.7476 10.407C90.0653 11.5752 89.3853 12.7446 88.7029 13.9127C88.0825 14.9747 87.4556 16.033 86.8427 17.0992C86.7206 17.3117 86.572 17.3752 86.3291 17.3743C83.81 17.3651 81.2907 17.3747 78.7715 17.3617C78.428 17.3599 78.2084 17.4431 78.0408 17.7581C77.7263 18.3492 77.3689 18.918 77.0304 19.4968C76.9966 19.5545 76.9678 19.6155 76.9415 19.677C76.8652 19.8551 76.8804 19.8778 77.0867 19.8874C77.1769 19.8915 77.2674 19.8885 77.3578 19.8885C79.8318 19.8884 82.3059 19.888 84.7799 19.8891C84.8915 19.8892 85.0057 19.8688 85.1196 19.9136C85.1804 20.0253 85.0881 20.101 85.0425 20.1793C84.2607 21.5226 83.4752 22.8638 82.6905 24.2054C82.6792 24.2247 82.6647 24.2427 82.6565 24.2632C82.5518 24.5236 82.3696 24.5989 82.0799 24.5974C79.5268 24.584 76.9736 24.5851 74.4205 24.5965C74.1567 24.5977 74.0144 24.5156 73.8874 24.2941C73.1421 22.9945 72.3835 21.7026 71.6285 20.4085C71.5665 20.3022 71.5011 20.1976 71.4324 20.0955C71.3198 19.928 71.3293 19.7716 71.4328 19.5974C71.9639 18.7032 72.4876 17.8048 73.0132 16.9075C73.5783 15.9429 74.1433 14.9781 74.7074 14.0129C75.3786 12.8645 76.0498 11.7161 76.7192 10.5667C77.3721 9.4458 78.0223 8.32337 78.6747 7.20222C78.8657 6.87389 79.0678 6.55156 79.2501 6.21858C79.3228 6.08572 79.4218 6.06048 79.5543 6.06236C79.8254 6.06618 80.0966 6.06417 80.3677 6.0642C81.7121 6.0643 83.0564 6.06424 84.4007 6.06427C84.4685 6.06427 84.5364 6.06169 84.6041 6.06491C84.8272 6.0756 84.8546 6.11618 84.7492 6.29622C84.1221 7.36718 83.4927 8.43677 82.8649 9.50732C82.3331 10.4142 81.8005 11.3206 81.2734 12.2302C81.202 12.3532 81.1201 12.4759 81.0818 12.6819Z"  />
<path d="M60.9036 24.7641C61.159 24.3223 61.3922 23.9165 61.6278 23.5121C62.7201 21.6361 63.813 19.7604 64.906 17.8848C65.182 17.4111 65.4478 16.931 65.7413 16.468C65.8591 16.2822 65.8691 16.1448 65.7557 15.954C65.0806 14.819 64.4173 13.6772 63.7514 12.5369C62.8148 10.9329 61.8801 9.32777 60.9431 7.72401C59.8705 5.88827 58.7961 4.05356 57.7227 2.21829C57.4515 1.75466 57.1788 1.29186 56.9122 0.825677C56.8597 0.733828 56.7757 0.648915 56.7956 0.5C57.1074 0.562864 57.4147 0.617082 57.7182 0.687384C59.2334 1.03836 60.7664 1.29729 62.3023 1.53664C63.4701 1.71863 64.6437 1.86507 65.8155 2.02166C65.9126 2.03463 65.9843 2.05326 66.0358 2.14169C66.6088 3.12566 67.1839 4.10835 67.7884 5.14262C66.8453 5.14262 65.9527 5.14262 64.9919 5.14262C66.2307 7.26443 67.4354 9.32773 68.6457 11.4007C68.7739 11.3535 68.7982 11.2373 68.8509 11.1472C69.8231 9.48606 70.7955 7.82504 71.7628 6.1611C71.8432 6.02284 71.925 5.95214 72.1005 5.95287C73.8064 5.96025 75.5123 5.9574 77.2183 5.95824C77.2627 5.95827 77.3071 5.96715 77.349 5.97161C77.3992 6.09304 77.3117 6.16898 77.2642 6.25101C76.4899 7.58676 75.7127 8.92086 74.9362 10.2553C73.6419 12.4797 72.3516 14.7063 71.0523 16.9277C69.5606 19.4778 68.0601 22.023 66.5665 24.572C66.4888 24.7045 66.4206 24.7963 66.2369 24.7955C64.5085 24.7876 62.7799 24.7907 61.0514 24.7897C61.0193 24.7898 60.9874 24.7791 60.9036 24.7641Z"  />
<path d="M59.1084 7.68187C59.2399 7.89509 59.3578 8.08452 59.4741 8.27492C60.2326 9.51684 60.9858 10.7619 61.7539 11.998C61.8815 12.2035 61.8956 12.3487 61.765 12.566C61.1891 13.5241 60.6398 14.4977 60.0776 15.4638C59.7626 16.0049 59.4289 16.5357 59.1286 17.0845C59.0012 17.3174 58.8424 17.3751 58.5884 17.3742C56.0808 17.3651 53.5732 17.3743 51.0656 17.3622C50.7138 17.3604 50.4803 17.437 50.3066 17.7697C49.9967 18.3629 49.6366 18.9305 49.2986 19.5094C49.2592 19.5769 49.2228 19.6466 49.1915 19.7179C49.1415 19.8316 49.1863 19.8865 49.3084 19.8868C49.3987 19.887 49.4891 19.8883 49.5795 19.8883C52.0645 19.8884 54.5495 19.888 57.0345 19.8895C57.157 19.8895 57.283 19.8648 57.436 19.9323C57.3449 20.2069 57.1618 20.4359 57.021 20.681C56.3474 21.8538 55.6581 23.0179 54.9774 24.1867C54.7441 24.5873 54.7481 24.5896 54.2756 24.5896C51.7454 24.5896 49.2152 24.5861 46.685 24.5951C46.4401 24.596 46.2958 24.5247 46.1754 24.3135C45.6332 23.3616 45.0777 22.4172 44.5252 21.4711C44.2658 21.027 44.0123 20.5791 43.737 20.1448C43.6062 19.9384 43.6045 19.7706 43.729 19.5597C44.5301 18.2022 45.3185 16.8374 46.1146 15.4769C47.2832 13.4798 48.456 11.4849 49.6246 9.48765C50.2511 8.41676 50.8752 7.34446 51.4932 6.26871C51.5755 6.12536 51.6657 6.05998 51.837 6.06055C53.5088 6.06591 55.1805 6.0628 56.8522 6.06534C57.1127 6.06574 57.1339 6.11209 57.0056 6.33161C56.2159 7.68287 55.428 9.03521 54.6371 10.3858C54.2923 10.9745 53.9402 11.5589 53.5948 12.1473C53.5057 12.2991 53.4297 12.4584 53.35 12.6098C53.4425 12.7136 53.5388 12.6795 53.6216 12.6799C54.3558 12.6831 55.0905 12.6667 55.824 12.6895C56.0964 12.6979 56.2238 12.5893 56.3481 12.3739C57.231 10.8441 58.125 9.32071 59.0162 7.79563C59.0328 7.76735 59.0578 7.74379 59.1084 7.68187Z"  />
<path d="M13.4752 24.9668C8.97388 17.2585 4.4823 9.567 0 1.89135C0.0761251 1.77725 0.144455 1.82326 0.203768 1.83686C1.92719 2.23244 3.66465 2.55661 5.41285 2.82277C6.61431 3.0057 7.81817 3.17372 9.02258 3.33654C9.1645 3.35571 9.23991 3.40326 9.30811 3.52104C9.86223 4.47837 10.4224 5.43221 11.0094 6.43605C10.0838 6.47345 9.19215 6.42979 8.29943 6.46041C8.35715 6.71324 13.2372 15.1114 13.5323 15.4651C13.7915 15.0256 14.0465 14.5968 14.2982 14.1662C15.2803 12.4858 16.2623 10.8053 17.241 9.1229C17.3135 8.99828 17.3826 8.92365 17.55 8.92439C19.2666 8.93186 20.9833 8.92895 22.7 8.92931C22.7437 8.92931 22.7896 8.92479 22.825 8.96028C22.8142 9.21867 13.7606 24.5885 13.4752 24.9668Z"  />
<path d="M34.4062 17.6094C34.5626 17.5372 34.6756 17.5611 34.7844 17.5608C35.5185 17.5585 36.2527 17.5553 36.9867 17.5628C37.1536 17.5645 37.2437 17.5118 37.3291 17.3637C38.0662 16.0842 38.8116 14.8093 39.5637 13.5384C39.6495 13.3934 39.6521 13.2937 39.567 13.1485C38.231 10.8712 36.9046 8.58843 35.5656 6.31295C35.4427 6.10418 35.43 5.95517 35.558 5.74057C36.3542 4.40479 37.1332 3.05895 37.9185 1.71677C38.0138 1.55402 38.1123 1.39314 38.2194 1.2146C38.4038 1.37494 38.4788 1.57831 38.5832 1.75678C40.2842 4.66301 41.9796 7.57246 43.6765 10.481C44.1895 11.3603 44.6986 12.2419 45.2213 13.1155C45.3208 13.2818 45.3211 13.4014 45.2229 13.5681C44.3193 15.1003 43.4254 16.6381 42.5283 18.174C42.2123 18.715 41.9009 19.2586 41.5746 19.7934C41.485 19.9401 41.4972 20.0471 41.5804 20.1884C42.4204 21.6152 43.2515 23.0471 44.0932 24.4729C44.183 24.6252 44.2004 24.7363 44.1055 24.8968C43.2455 26.351 42.3955 27.811 41.5407 29.2683C41.4972 29.3423 41.4745 29.4337 41.3544 29.5C39.0371 25.5402 36.727 21.5783 34.4062 17.6094Z"  />
<path d="M31.525 7.73887C31.1235 8.4291 30.7528 9.06605 30.3825 9.70326C29.5787 11.0863 28.7761 12.47 27.9712 13.8524C26.8851 15.7178 25.7977 17.5824 24.7099 19.4469C23.6895 21.1958 22.6644 22.942 21.6519 24.6953C21.5419 24.8858 21.4269 24.9543 21.2048 24.9529C19.556 24.9428 17.907 24.9474 16.2581 24.9474C16.1799 24.9474 16.1017 24.9474 16.033 24.9474C15.9619 24.8414 16.0455 24.7874 16.0804 24.7274C17.5662 22.1752 19.0558 19.6252 20.5409 17.0727C21.8403 14.8394 23.1345 12.6032 24.4321 10.3689C24.9097 9.5467 25.3937 8.72814 25.8669 7.90357C25.9442 7.76903 26.0321 7.7195 26.1878 7.71997C27.9045 7.72507 29.6212 7.72329 31.3378 7.72393C31.3796 7.72393 31.4214 7.73036 31.525 7.73887Z"  />
<path d="M36.3336 14.1141C35.8295 14.9855 35.3276 15.8581 34.8208 16.728C33.7282 18.6035 32.6337 20.4778 31.5387 22.3519C31.0703 23.1537 30.5967 23.9527 30.1311 24.7561C30.0578 24.8826 29.9835 24.9511 29.8203 24.9505C28.0583 24.9438 26.2962 24.9462 24.5341 24.9455C24.4915 24.9455 24.4439 24.9551 24.3966 24.8843C24.5084 24.6879 24.6264 24.476 24.7486 24.2665C26.1634 21.8406 27.5788 19.415 28.9944 16.9896C29.2369 16.574 29.4901 16.1642 29.7206 15.7424C29.8187 15.5628 29.9307 15.5203 30.1275 15.5615C30.814 15.7048 31.5089 15.7601 32.2116 15.73C33.6969 15.6664 35.011 15.188 36.1125 14.1818C36.1615 14.1371 36.2205 14.1033 36.2748 14.0645C36.2944 14.081 36.314 14.0975 36.3336 14.1141Z"  />
<path d="M27.0464 5.81168C27.365 5.26229 27.6657 4.74102 27.9691 4.22139C28.4373 3.41978 28.9094 2.62031 29.3749 1.81723C29.4474 1.69221 29.5182 1.61865 29.6848 1.61939C31.4011 1.6268 33.1175 1.62415 34.8339 1.62468C34.8776 1.62468 34.9236 1.62013 34.9628 1.65953C34.998 1.74227 34.936 1.80393 34.8988 1.86793C34.1625 3.13438 33.4237 4.39939 32.6884 5.66642C32.6223 5.78028 32.5572 5.85109 32.4044 5.85052C30.6542 5.84381 28.904 5.84522 27.1537 5.84358C27.1329 5.84355 27.1122 5.83172 27.0464 5.81168Z"  />
<path d="M36.2748 14.0644C36.2848 14.0339 36.3099 14.0008 36.3366 14.0143C36.3911 14.0418 36.3562 14.0809 36.3335 14.1141C36.314 14.0975 36.2944 14.081 36.2748 14.0644Z"  />
</svg>
