<?xml version="1.0" encoding="utf-8"?>
<!-- Generator: Adobe Illustrator 27.8.1, SVG Export Plug-In . SVG Version: 6.00 Build 0)  -->
<svg version="1.1" id="Layer_1" xmlns="http://www.w3.org/2000/svg" xmlns:xlink="http://www.w3.org/1999/xlink" x="0px" y="0px"
	 viewBox="0 0 518.7 426.8" style="enable-background:new 0 0 518.7 426.8;" xml:space="preserve">
<g>
	<g>
		<path class="st0" d="M348.3,94c-9.9-3.3-21.1-6.2-33.8-8.5l4.2-9.8c2.2-5.1,6.1-9.4,10.9-12.2l42.6-24.7L348.3,94z"/>
		<path class="st0" d="M295.4,215.9l-19.2,44.3l-0.8,2c-6.4,1-13.6,1.6-21.5,1.3c-5.1-0.2-9.8-0.7-14.2-1.3l-20.1-46.3
			c11.1,1.9,23.7,3,38,3C271.7,219,284.3,217.8,295.4,215.9z"/>
		<path class="st0" d="M368.5,158.2c-0.2,0.6-12.2,34.9-68.5,47c-11.2,2.4-24.2,3.9-39.2,4.1c-1.1,0-2.2,0-3.4,0s-2.3,0-3.4,0
			c-15-0.2-28-1.7-39.2-4.1c-56.2-12.1-68.2-46.4-68.5-47c0.4,0.4,13.7,14.4,57.3,21.4c11,1.8,23.9,3,39,3.6
			c4.7,0.2,9.6,0.2,14.8,0.2c5.1,0,10.1-0.1,14.8-0.2l4.2-9.8l9-20c4.7-10.5-30.9-22.2-30.9-22.2c38.3-3.9,74.2,6.7,74.9,6.8
			l-13.7,31l-4.6,10.6C354.8,172.7,368.1,158.6,368.5,158.2z"/>
		<path class="st0" d="M407.2,150.7c-0.5-0.4-17.5-16.1-72.9-24.4c-10.5-1.6-22.4-2.9-35.8-3.8c-12.4-0.8-26-1.3-41.2-1.3
			c-15.1,0-28.8,0.5-41.2,1.3l4.1,9.4l7.8,17.9c4.3,10,16,18.6,27.3,23.9c1.3,0.6,2,0.9,2,0.9c-31.9,0.7-59.4-7.8-59.4-7.8
			l-13.6-31.3l-4-9.2c-55.4,8.3-72.4,24-72.9,24.4c0.3-0.6,12.1-30.1,62.9-47.5l-4-9.1l-24-55.1l42.6,24.7
			c4.8,2.8,8.7,7.1,10.9,12.2l4.2,9.8l4,9.1c15.3-2.6,32.9-4.1,53.2-4.1s37.9,1.5,53.2,4.1c12.8,2.2,24,5.1,33.8,8.4
			C395.1,120.6,407,150,407.2,150.7z"/>
	</g>
	<g>
		<path class="st0" d="M78.2,333.5l-7.8,50.4H52.7l-9.1-50.4h10.8l7.1,40l6-40H78.2z"/>
		<path class="st0" d="M138.2,333.5l0.6,50.4h-12l-0.6-46.8l-2.1-3.6L138.2,333.5L138.2,333.5z"/>
		<path class="st0" d="M223.2,338.3c0,0.2,0.1,0.5,0.1,0.7l0.1,10.8c-0.4,4-2.3,6.5-5,8.2l6.3,25.9h-12.8l-5.8-23.2H201l0.3,23.2
			h-12l-0.6-46.8l-2.1-3.6h28.6c1.5,0,5.3,0.4,7.2,2.7C222.9,337,223.1,337.7,223.2,338.3z M211.3,341.8h-10.5l0.1,10.5h6.4
			c2.3,0,4.1-1.8,4.1-4.1L211.3,341.8z"/>
		<path class="st0" d="M285.1,341.8l0.1,10.5h13.5l-2.8,8.3h-10.6l0.2,14.9H300l8.1-2.4l-3.5,10.7h-31l-0.6-46.8l-2.1-3.6h36.7
			l-2.8,8.3H285.1z"/>
		<path class="st0" d="M389.7,333.5l-13.3,31.6l0.2,18.8h-12l-0.2-18.8l-14.1-31.6h12l7.9,19.9l7.5-19.9H389.7z"/>
		<path class="st0" d="M448.4,341.8l0.1,10.5H462l-2.8,8.3h-10.6l0.2,14.9h14.5l8.1-2.4l-3.5,10.7h-30.9l-0.6-46.8l-2.1-3.6h36.7
			l-2.8,8.3H448.4z"/>
	</g>
</g>
</svg>
