<svg width="25" height="25" viewBox="0 0 25 25" fill="none" xmlns="http://www.w3.org/2000/svg">
<g opacity="0.6" clip-path="url(#clip0_1185_122)">
<path d="M20.8303 5.16781C19.2767 4.44094 17.6156 3.91267 15.8789 3.61188C15.6656 3.99749 15.4164 4.51614 15.2446 4.92873C13.3985 4.6511 11.5693 4.6511 9.75716 4.92873C9.58539 4.51614 9.33055 3.99749 9.11536 3.61188C7.37681 3.91267 5.71376 4.44288 4.16019 5.17166C1.02664 9.90686 0.177189 14.5245 0.601917 19.0765C2.68025 20.6285 4.69441 21.5713 6.67457 22.1883C7.16349 21.5154 7.59953 20.8001 7.97518 20.0463C7.25975 19.7744 6.57453 19.439 5.92707 19.0495C6.09884 18.9222 6.26686 18.7892 6.42918 18.6523C10.3782 20.4994 14.6689 20.4994 18.5707 18.6523C18.735 18.7892 18.903 18.9222 19.0728 19.0495C18.4235 19.4409 17.7364 19.7763 17.021 20.0482C17.3966 20.8001 17.8308 21.5174 18.3216 22.1902C20.3036 21.5733 22.3197 20.6305 24.398 19.0765C24.8964 13.7995 23.5467 9.22434 20.8303 5.16781ZM8.51318 16.277C7.32772 16.277 6.35555 15.1703 6.35555 13.8226C6.35555 12.475 7.30696 11.3664 8.51318 11.3664C9.71942 11.3664 10.6916 12.473 10.6708 13.8226C10.6727 15.1703 9.71942 16.277 8.51318 16.277ZM16.4867 16.277C15.3013 16.277 14.3291 15.1703 14.3291 13.8226C14.3291 12.475 15.2805 11.3664 16.4867 11.3664C17.693 11.3664 18.6651 12.473 18.6444 13.8226C18.6444 15.1703 17.693 16.277 16.4867 16.277Z" fill="#173637"/>
</g>
<defs>
<clipPath id="clip0_1185_122">
<rect width="24" height="24" fill="white" transform="translate(0.5 0.940002)"/>
</clipPath>
</defs>
</svg>
