<svg width="17" height="17" viewBox="0 0 17 17" fill="none" xmlns="http://www.w3.org/2000/svg">
<path d="M0.725 0.375H16.475V16.125H0.725V0.375ZM13.8031 4.13672V3.96094H10.8852L8.77578 9.12891L6.42031 3.92578H3.36172V4.13672L4.34609 5.29688C4.41641 5.40234 4.48672 5.54297 4.45156 5.64844V10.3242C4.48672 10.5 4.45156 10.6758 4.31094 10.7812L3.22109 12.1523V12.3281H6.38516V12.1523L5.26016 10.7812C5.15469 10.6758 5.08437 10.5 5.11953 10.3242V6.28125L7.86172 12.3281H8.17812L10.5687 6.28125V11.0977C10.5687 11.2383 10.5687 11.2383 10.4984 11.3438L9.61953 12.1523V12.3281H13.768V12.1523L12.9594 11.3438C12.8891 11.3086 12.8539 11.2031 12.8539 11.1328V5.15625C12.8539 5.08594 12.8891 4.98047 12.9594 4.94531L13.8031 4.13672Z" fill="black"/>
<a href="https://medium.com/@vireye">
<rect fill="black" fill-opacity="0" x="-3.0875" y="-2.85" width="15.75" height="20.7"/>
</a>
</svg>
