<svg width="25" height="25" viewBox="0 0 25 25" fill="none" xmlns="http://www.w3.org/2000/svg">
<g clip-path="url(#clip0_1185_119)">
<path d="M21.4062 6.94C20.6562 7.28375 19.8438 7.51813 18.9688 7.64313C19.875 7.08063 20.5 6.28375 20.8438 5.2525C20 5.7525 19.0938 6.09625 18.125 6.28375C17.2812 5.3775 16.2188 4.92438 14.9375 4.92438C13.7812 4.92438 12.7812 5.34625 11.9375 6.19C11.0938 7.03375 10.6719 8.04938 10.6719 9.23688C10.6719 9.54938 10.7188 9.8775 10.8125 10.2213C9.0625 10.1275 7.41406 9.68219 5.86719 8.88531C4.32031 8.08844 3.01562 7.03375 1.95312 5.72125C1.57812 6.3775 1.39062 7.08844 1.39062 7.85406C1.39062 8.61969 1.5625 9.315 1.90625 9.94C2.25 10.565 2.70312 11.065 3.26562 11.44C2.60938 11.44 1.96875 11.2681 1.34375 10.9244V10.9713C1.34375 12.0025 1.67188 12.9088 2.32812 13.69C2.98438 14.4713 3.79688 14.9713 4.76562 15.19C4.42188 15.2838 4.04688 15.3306 3.64062 15.3306C3.39062 15.3306 3.125 15.2994 2.84375 15.2369C3.125 16.1119 3.63281 16.8228 4.36719 17.3697C5.10156 17.9166 5.92188 18.2056 6.82812 18.2369C5.29688 19.4556 3.53125 20.065 1.53125 20.065C1.1875 20.065 0.84375 20.0494 0.5 20.0181C2.5 21.2994 4.6875 21.94 7.0625 21.94C9.5625 21.94 11.7812 21.2994 13.7188 20.0181C15.5 18.8931 16.8906 17.3619 17.8906 15.4244C18.8281 13.5806 19.2969 11.69 19.2969 9.7525L19.25 9.19C20.0938 8.59625 20.8125 7.84625 21.4062 6.94Z" fill="black" fill-opacity="0.54"/>
</g>
<defs>
<clipPath id="clip0_1185_119">
<rect width="24" height="24" fill="white" transform="matrix(1 0 0 -1 0.5 24.94)"/>
</clipPath>
</defs>
</svg>
