<svg width="24" height="24" viewBox="0 0 24 24" fill="none" xmlns="http://www.w3.org/2000/svg">
<g id="SVG" clip-path="url(#clip0_1489_243)">
<circle id="Ellipse 41" cx="12" cy="12" r="12" fill="white"/>
<path id="Vector" d="M17.7829 7.3306C16.3977 6.20116 14.2074 6.00983 14.1149 6.00171C13.9686 5.98896 13.8297 6.07303 13.7697 6.2087C13.7674 6.21334 13.6451 6.57339 13.5269 6.92069C15.1366 7.20653 16.2303 7.84082 16.2886 7.87561C16.5617 8.03679 16.6531 8.39221 16.4937 8.66877C16.388 8.85315 16.1966 8.95635 16 8.95635C15.9023 8.95635 15.804 8.93142 15.7137 8.87808C15.6977 8.86822 14.0931 7.94171 12.0011 7.94171C9.90857 7.94171 8.30343 8.8688 8.28743 8.87808C8.01486 9.03868 7.66514 8.94417 7.50686 8.66703C7.34857 8.39105 7.44057 8.03679 7.71257 7.87561C7.77086 7.84082 8.86857 7.20421 10.4829 6.91895C10.3583 6.56759 10.2326 6.21334 10.2303 6.2087C10.1703 6.07245 10.0314 5.98664 9.88514 6.00171C9.79257 6.00925 7.60229 6.20058 6.19886 7.34568C5.46514 8.03331 4 12.0536 4 15.5295C4 15.591 4.01543 15.6507 4.04571 15.704C5.05771 17.5072 7.81657 17.9791 8.44514 17.9994C8.44914 18 8.45257 18 8.456 18C8.56686 18 8.67143 17.9461 8.73714 17.8551L9.41714 16.9204C7.92571 16.5557 7.13714 15.9823 7.08971 15.9469C6.836 15.7574 6.78114 15.3944 6.968 15.1364C7.15429 14.8795 7.51086 14.8227 7.76457 15.0112C7.78571 15.0251 9.24114 16.0588 12 16.0588C14.7697 16.0588 16.2211 15.021 16.2354 15.0106C16.4891 14.8239 16.8469 14.8801 17.0326 15.1387C17.2177 15.3961 17.164 15.7568 16.9114 15.9458C16.864 15.9812 16.0794 16.5534 14.5914 16.9181L15.2629 17.8545C15.3286 17.9461 15.4331 17.9994 15.544 17.9994C15.548 17.9994 15.5514 17.9994 15.5549 17.9988C16.184 17.9785 18.9429 17.5066 19.9543 15.7034C19.9846 15.6501 20 15.5904 20 15.5289C20 12.0536 18.5349 8.03331 17.7829 7.3306ZM9.71429 14.3195C9.08286 14.3195 8.57143 13.6707 8.57143 12.87C8.57143 12.0693 9.08286 11.4205 9.71429 11.4205C10.3457 11.4205 10.8571 12.0693 10.8571 12.87C10.8571 13.6707 10.3457 14.3195 9.71429 14.3195ZM14.2857 14.3195C13.6543 14.3195 13.1429 13.6707 13.1429 12.87C13.1429 12.0693 13.6543 11.4205 14.2857 11.4205C14.9171 11.4205 15.4286 12.0693 15.4286 12.87C15.4286 13.6707 14.9171 14.3195 14.2857 14.3195Z" fill="black"/>
</g>
<defs>
<clipPath id="clip0_1489_243">
<rect width="24" height="24" fill="white"/>
</clipPath>
</defs>
</svg>
