<svg width="24" height="24" viewBox="0 0 24 24" fill="none" xmlns="http://www.w3.org/2000/svg">
<g clip-path="url(#clip0_1489_228)">
<path d="M12 23.99C18.6274 23.99 24 18.6174 24 11.99C24 5.36257 18.6274 -0.0100098 12 -0.0100098C5.37258 -0.0100098 0 5.36257 0 11.99C0 18.6174 5.37258 23.99 12 23.99Z" fill="white"/>
<path d="M4.60842 5.03735L10.3443 12.7066L4.57227 18.9421H5.87142L10.9249 13.4827L15.0079 18.9421H19.4286L13.3699 10.8415L18.7425 5.03735H17.4434L12.7895 10.0652L9.02917 5.03735H4.60842ZM6.51887 5.9942H8.54974L17.5179 17.9852H15.487L6.51887 5.9942Z" fill="black"/>
</g>
<defs>
<clipPath id="clip0_1489_228">
<rect width="24" height="24" fill="white" transform="translate(0 -0.0100098)"/>
</clipPath>
</defs>
</svg> 