<?xml version="1.0" encoding="utf-8"?>
<!-- Generator: Adobe Illustrator 27.7.0, SVG Export Plug-In . SVG Version: 6.00 Build 0)  -->
<svg version="1.1" id="Layer_1" xmlns="http://www.w3.org/2000/svg" xmlns:xlink="http://www.w3.org/1999/xlink" x="0px" y="0px"
	 viewBox="0 0 2000 1000" style="enable-background:new 0 0 2000 1000;" xml:space="preserve">
<style type="text/css">
	.st0{fill:url(#SVGID_1_);}
	.st1{fill:url(#SVGID_00000158004639646243338860000018059073551576564376_);}
	.st2{fill:url(#SVGID_00000010300387480488283920000001006533733833879224_);}
	.st3{fill:url(#SVGID_00000183934230108361226560000008737119373023337872_);}
</style>
<g>
	<g>
		<linearGradient id="SVGID_1_" gradientUnits="userSpaceOnUse" x1="1170.5068" y1="196.0392" x2="1167.8757" y2="880.1208">
			<stop  offset="0" style="stop-color:#862ADB"/>
			<stop  offset="1" style="stop-color:#35063D"/>
		</linearGradient>
		<path class="st0" d="M1179.7,386.92c-19.53-6.61-41.66-12.34-66.74-16.7l8.38-19.29c4.41-10.16,11.97-18.64,21.55-24.2
			l84.16-48.83L1179.7,386.92z"/>
		
			<linearGradient id="SVGID_00000145040861860915018480000004563123726841929348_" gradientUnits="userSpaceOnUse" x1="1001.6572" y1="195.3897" x2="999.0261" y2="879.4714">
			<stop  offset="0" style="stop-color:#862ADB"/>
			<stop  offset="1" style="stop-color:#35063D"/>
		</linearGradient>
		<path style="fill:url(#SVGID_00000145040861860915018480000004563123726841929348_);" d="M1075.05,627.87l-38.05,87.6l-1.67,3.85
			c-12.66,1.99-26.95,3.16-42.58,2.66c-10.03-0.32-19.42-1.29-28.08-2.65l-39.73-91.47c22,3.78,46.9,6.02,75.06,6.02
			C1028.14,633.89,1053.05,631.65,1075.05,627.87z"/>
		
			<linearGradient id="SVGID_00000007398642913265759810000004208724537970016419_" gradientUnits="userSpaceOnUse" x1="1001.2247" y1="195.3881" x2="998.5936" y2="879.4698">
			<stop  offset="0" style="stop-color:#862ADB"/>
			<stop  offset="1" style="stop-color:#35063D"/>
		</linearGradient>
		<path style="fill:url(#SVGID_00000007398642913265759810000004208724537970016419_);" d="M1219.57,513.81
			c-0.44,1.28-24.15,69.03-135.34,92.91c-22.19,4.77-47.87,7.79-77.54,8.19c-2.21,0.03-4.45,0.04-6.7,0.04s-4.49-0.01-6.7-0.04
			c-29.67-0.4-55.34-3.42-77.54-8.19c-111.2-23.88-134.9-91.62-135.34-92.91c0.71,0.76,27.02,28.51,113.32,42.22
			c21.7,3.45,47.21,6.02,77.04,7.04c9.3,0.32,19.03,0.49,29.2,0.49s19.9-0.17,29.2-0.49l8.38-19.31l17.85-39.56
			c9.37-20.85-61.06-43.82-61.06-43.82c75.67-7.78,146.74,13.2,148.03,13.43L1115.38,535l-9.14,21.03
			C1192.55,542.32,1218.85,514.56,1219.57,513.81z"/>
		
			<linearGradient id="SVGID_00000062914866609822711410000012403280299700254104_" gradientUnits="userSpaceOnUse" x1="1001.1671" y1="195.3878" x2="998.5359" y2="879.4695">
			<stop  offset="0" style="stop-color:#862ADB"/>
			<stop  offset="1" style="stop-color:#35063D"/>
		</linearGradient>
		<path style="fill:url(#SVGID_00000062914866609822711410000012403280299700254104_);" d="M1296.17,498.82
			c-0.93-0.87-34.66-31.81-144.09-48.3c-20.75-3.12-44.23-5.73-70.73-7.5c-24.47-1.65-51.5-2.6-81.35-2.6s-56.88,0.95-81.35,2.6
			l8.04,18.51l15.37,35.39c8.57,19.73,31.69,36.74,53.95,47.27c2.51,1.19,3.99,1.78,3.99,1.78c-63.1,1.41-117.34-15.49-117.34-15.49
			l-26.86-61.82l-7.88-18.14c-109.44,16.48-143.16,47.43-144.09,48.3c0.51-1.28,23.92-59.5,124.28-93.92l-7.81-17.98l-47.36-109.03
			l84.16,48.83c9.58,5.56,17.13,14.04,21.55,24.2l8.38,19.29l7.84,18.06c30.23-5.11,65.06-8.16,105.13-8.16s74.9,3.04,105.13,8.16
			c25.36,4.28,47.48,10,66.76,16.62C1272.25,439.32,1295.66,497.54,1296.17,498.82z"/>
	</g>
</g>
</svg>
