<svg xmlns="http://www.w3.org/2000/svg" width="32" height="32" viewBox="0 0 32 32">
  <g id="edit" transform="translate(-236 -380)">
    <path id="Vector" d="M0,0H32V32H0Z" transform="translate(236 380)" fill="none" opacity="0"/>
    <path id="Vector-2" data-name="Vector" d="M28,14A14,14,0,1,1,14,0,14,14,0,0,1,28,14Z" transform="translate(238 382)" fill="#5634ad" opacity="0.4"/>
    <path id="Контур_2946" data-name="Контур 2946" d="M11173.389,6980.618a1.355,1.355,0,0,1-.363-1.239l.31-2.263a2.5,2.5,0,0,1,.575-1.152l4.116-4.112c.081.2.161.4.269.609a4.654,4.654,0,0,0,.295.583,4.525,4.525,0,0,0,.268.416c.108.154.229.288.3.381.054.061.094.121.106.127a6.9,6.9,0,0,0,.738.73,1.022,1.022,0,0,0,.106.114,3.516,3.516,0,0,0,.416.3,3.15,3.15,0,0,0,.442.294,4.959,4.959,0,0,0,.59.315c.215.087.415.167.6.241l-4.13,4.118a2.256,2.256,0,0,1-1.14.576l-2.266.315a1.84,1.84,0,0,1-.268.027A1.331,1.331,0,0,1,11173.389,6980.618Zm9.424-5.524a5.684,5.684,0,0,1-3.9-3.911.313.313,0,0,1,.066-.281l.872-.857c1.407-1.406,2.748-1.379,4.115,0a2.577,2.577,0,0,1,0,4.125l-.857.851a.282.282,0,0,1-.2.087A.238.238,0,0,1,11182.813,6975.094Z" transform="translate(-10926.998 -6579)" fill="#5634ad"/>
  </g>
</svg>