<svg width="39" height="17" viewBox="0 0 39 17" fill="none" xmlns="http://www.w3.org/2000/svg">
<path d="M6.5 12.5C5.8 12.5 5.2 12.3 4.7 11.8C4.2 11.4 4 10.8 4 10V3.5H16.4L19.3 0H4.1C1.6 0 0 1.6 0 3.6V10.8C0 12.2 0.5 13.5 1.5 14.5C2.5 15.6 3.9 16.1 5.5 16.1H14.9L17.8 12.5H6.5Z" fill="white"/>
<path d="M36.3116 7.5C35.4116 6.5 34.2116 6 32.7116 6H24.5116C24.5116 6 24.5116 6 24.4116 6H23.9116C22.3116 6 22.1116 3.5 23.9116 3.5H35.4116L38.2116 0H23.9116C22.4116 0 21.3116 0.499998 20.4116 1.4C19.8116 2 19.4116 2.7 19.2116 3.5C19.2116 3.5 18.8116 4.9 19.1116 6C19.3116 6.9 19.7116 7.7 20.3116 8.4C21.2116 9.4 22.4116 9.9 23.8116 9.9H32.4116C32.8116 9.9 33.1116 10 33.3116 10.3C33.5116 10.6 33.7116 10.9 33.7116 11.3C33.7116 11.7 33.6116 12 33.3116 12.3C33.0116 12.6 32.7116 12.7 32.3116 12.7H20.2116L17 16.2H32.5116C34.0116 16.2 35.2116 15.7 36.1116 14.7C37.0116 13.7 37.5116 12.5 37.5116 11.1C37.6116 9.7 37.2116 8.5 36.3116 7.5Z" fill="white"/>
</svg>
