<svg width="245" height="17" viewBox="0 0 245 17" fill="none" xmlns="http://www.w3.org/2000/svg">
<path d="M109 5.4C109 3.9 109.5 2.7 110.5 1.6C111.5 0.499998 112.9 0 114.5 0H123.6C125.3 0 126.7 0.499998 127.6 1.6C128.6 2.6 129.1 3.9 129.1 5.3V10.8C129.1 12.2 128.6 13.4 127.6 14.5C126.6 15.6 125.3 16.1 123.6 16.1H114.5C112.8 16.1 111.5 15.6 110.5 14.5C109.5 13.4 109 12.2 109 10.8V5.4ZM122.5 12.5C123.3 12.5 123.9 12.3 124.3 11.8C124.8 11.4 125 10.8 125 10V5.9C125 5.1 124.8 4.6 124.3 4.1C123.8 3.7 123.3 3.4 122.5 3.4H115.5C114.8 3.4 114.2 3.6 113.7 4.1C113.3 4.5 113 5.1 113 5.9V10.1C113 10.8 113.2 11.4 113.7 11.8C114.2 12.2 114.8 12.5 115.5 12.5H122.5Z" fill="white"/>
<path d="M106.7 0H88.8L86 3.6H93.3L93.2 16.2H97.3L97.4 3.6H103.9L106.7 0Z" fill="white"/>
<path d="M81.8 1.6C80.8 0.499998 79.5 0 77.9 0H65V2.3V3.6V7.5V9.4V16.2H69.1V11.2H77.9C79.5 11.2 80.8 10.6 81.8 9.5C82.8 8.4 83.3 7.1 83.3 5.6C83.4 4 82.8 2.7 81.8 1.6ZM78.8 6.9C78.4 7.3 78 7.5 77.4 7.5H69.1V3.6H77.5C78.1 3.6 78.5 3.8 78.9 4.2C79.2 4.6 79.4 5 79.4 5.6C79.3 6.1 79.1 6.5 78.8 6.9Z" fill="white"/>
<path d="M53.9 10.5V16.1H49.8V10.5L41 0H46.5L51.8 6.8L57.2 0H62.6L53.9 10.5Z" fill="white"/>
<path d="M40.9 16.1L35.7 11C36.9 10.8 38 10.3 38.8 9.4C39.8 8.3 40.3 7 40.3 5.5C40.3 4 39.8 2.7 38.8 1.6C37.8 0.499998 36.5 0 34.9 0H22V2.3V3.6V7.5V9.4V16.2H26.1V11.2H30.7L35.4 16.2L40.9 16.1ZM26.1 3.6H34.5C35.1 3.6 35.5 3.8 35.9 4.2C36.2 4.6 36.4 5 36.4 5.6C36.4 6.1 36.2 6.6 35.9 7C35.5 7.4 35.1 7.6 34.5 7.6H26.2L26.1 3.6Z" fill="white"/>
<path d="M6.5 12.5C5.8 12.5 5.2 12.3 4.7 11.8C4.2 11.4 4 10.8 4 10V3.5H16.4L19.3 0H4.1C1.6 0 0 1.6 0 3.6V10.8C0 12.2 0.5 13.5 1.5 14.5C2.5 15.6 3.9 16.1 5.5 16.1H14.9L17.8 12.5H6.5Z" fill="white"/>
<path d="M151.312 7.5C150.412 6.5 149.212 6 147.712 6H139.512C139.512 6 139.512 6 139.412 6H138.912C137.312 6 137.112 3.5 138.912 3.5H150.412L153.212 0H138.912C137.412 0 136.312 0.499998 135.412 1.4C134.812 2 134.412 2.7 134.212 3.5C134.212 3.5 133.812 4.9 134.112 6C134.312 6.9 134.712 7.7 135.312 8.4C136.212 9.4 137.412 9.9 138.812 9.9H147.412C147.812 9.9 148.112 10 148.312 10.3C148.512 10.6 148.712 10.9 148.712 11.3C148.712 11.7 148.612 12 148.312 12.3C148.012 12.6 147.712 12.7 147.312 12.7H135.212L134.112 16.2H147.512C149.012 16.2 150.212 15.7 151.112 14.7C152.012 13.7 152.512 12.5 152.512 11.1C152.612 9.7 152.212 8.5 151.312 7.5Z" fill="white"/>
<path d="M179 5.4C179 3.9 179.5 2.7 180.5 1.6C181.5 0.499998 182.9 0 184.5 0H193.6C195.3 0 196.7 0.499998 197.6 1.6C198.6 2.6 199.1 3.9 199.1 5.3V10.8C199.1 12.2 198.6 13.4 197.6 14.5C196.6 15.6 195.3 16.1 193.6 16.1H184.5C182.8 16.1 181.5 15.6 180.5 14.5C179.5 13.4 179 12.2 179 10.8V5.4ZM192.5 12.5C193.3 12.5 193.9 12.3 194.3 11.8C194.8 11.4 195 10.8 195 10V5.9C195 5.1 194.8 4.6 194.3 4.1C193.8 3.7 193.3 3.4 192.5 3.4H185.5C184.8 3.4 184.2 3.6 183.7 4.1C183.3 4.5 183 5.1 183 5.9V10.1C183 10.8 183.2 11.4 183.7 11.8C184.2 12.2 184.8 12.5 185.5 12.5H192.5Z" fill="white"/>
<path d="M244.7 0H226.8L224 3.6H231.3L231.2 16.2H235.3L235.4 3.6H241.9L244.7 0Z" fill="white"/>
<path d="M173.8 1.6C172.8 0.499998 171.5 0 169.9 0H157V2.3V3.6V7.5V9.4V16.2H161.1V11.2H169.9C171.5 11.2 172.8 10.6 173.8 9.5C174.8 8.4 175.3 7.1 175.3 5.6C175.4 4 174.8 2.7 173.8 1.6ZM170.8 6.9C170.4 7.3 170 7.5 169.4 7.5H161.1V3.6H169.5C170.1 3.6 170.5 3.8 170.9 4.2C171.2 4.6 171.4 5 171.4 5.6C171.3 6.1 171.1 6.5 170.8 6.9Z" fill="white"/>
<path d="M221.9 16.1L216.7 11C217.9 10.8 219 10.3 219.8 9.4C220.8 8.3 221.3 7 221.3 5.5C221.3 4 220.8 2.7 219.8 1.6C218.8 0.499998 217.5 0 215.9 0H203V2.3V3.6V7.5V9.4V16.2H207.1V11.2H211.7L216.4 16.2L221.9 16.1ZM207.1 3.6H215.5C216.1 3.6 216.5 3.8 216.9 4.2C217.2 4.6 217.4 5 217.4 5.6C217.4 6.1 217.2 6.6 216.9 7C216.5 7.4 216.1 7.6 215.5 7.6H207.2L207.1 3.6Z" fill="white"/>
</svg>
