<svg width="332" height="30" viewBox="0 0 332 30" fill="none" xmlns="http://www.w3.org/2000/svg">
<path d="M222 0V11.9H230.9V0H236.9V29.7H230.9V17.9H222V29.8H216V0H222Z" fill="white"/>
<path fill-rule="evenodd" clip-rule="evenodd" d="M331.8 21.8V29.8L314 13.5L308 8V0L322.3 13L331.8 21.8ZM308 13.6001L314 19.1001V29.8001H308V13.6001ZM331.8 0V16.3L325.9 10.7V0H331.8Z" fill="white"/>
<path d="M252 0V23.8H263.8V29.8H246V0H252Z" fill="white"/>
<path d="M173.4 4.4C176.3 7.3 177.8 10.8 177.8 14.9C177.8 19 176.3 22.5 173.4 25.4C170.5 28.3 167 29.8 162.9 29.8C158.8 29.8 155.3 28.3 152.4 25.4C149.5 22.5 148 19 148 14.9C148 10.8 149.5 7.3 152.4 4.4C155.3 1.5 158.8 0 162.9 0C167 0 170.5 1.5 173.4 4.4ZM156.6 8.60001C154.9 10.4 154 12.5 154 14.9C154 17.4 154.9 19.5 156.6 21.2C158.3 22.9 160.4 23.8 162.9 23.8C165.3 23.8 167.4 22.9 169.2 21.2C171 19.5 171.8 17.4 171.8 14.9C171.8 12.5 170.9 10.4 169.2 8.60001C167.4 6.80001 165.3 6 162.9 6C160.5 6 158.4 6.80001 156.6 8.60001Z" fill="white"/>
<path d="M296.4 4.4C299.3 7.3 300.8 10.8 300.8 14.9C300.8 19 299.3 22.5 296.4 25.4C293.5 28.3 290 29.8 285.9 29.8C281.8 29.8 278.3 28.3 275.4 25.4C272.5 22.5 271 19 271 14.9C271 10.8 272.5 7.3 275.4 4.4C278.3 1.5 281.8 0 285.9 0C290 0 293.5 1.5 296.4 4.4ZM279.6 8.60001C277.9 10.4 277 12.5 277 14.9C277 17.4 277.9 19.5 279.6 21.2C281.3 22.9 283.4 23.8 285.9 23.8C288.3 23.8 290.4 22.9 292.2 21.2C294 19.5 294.8 17.4 294.8 14.9C294.8 12.5 293.9 10.4 292.2 8.60001C290.4 6.80001 288.3 6 285.9 6C283.5 6 281.4 6.80001 279.6 8.60001Z" fill="white"/>
<path d="M141.2 0L138.8 5.9H131.4V29.7H125.4V6H118L120.4 0.100006H141.2V0Z" fill="white"/>
<path d="M208.2 0L205.8 5.9H198.4V29.7H192.4V6H185L187.4 0.100006H208.2V0Z" fill="white"/>
<path d="M107.8 3.10001C105.8 1.10001 103.3 0 100.4 0H96H90V10.4V20.8V29.7H96V20.8V14.9V10.4V5.9H100.4C101.6 5.9 102.7 6.3 103.6 7.2C104.5 8.1 104.9 9.1 104.9 10.3C104.9 11.5 104.5 12.6 103.6 13.5C102.7 14.4 101.7 14.8 100.4 14.8H100.1V20.7H100.4C103.3 20.7 105.7 19.7 107.8 17.6C109.8 15.6 110.9 13.1 110.9 10.3C110.8 7.6 109.8 5.10001 107.8 3.10001Z" fill="white"/>
<path d="M76.2002 10.9L82.8002 0H76.0002L73.2002 5.2L76.2002 10.9Z" fill="white"/>
<path d="M68.5 5.2L65.8 0H59L67.9 16.4V29.8H73.8V15L68.5 5.2Z" fill="white"/>
<path d="M50 16.5C51.3 14.7 51.9 12.7 51.9 10.5C51.9 7.6 50.9 5.2 48.8 3.2C46.8 1.2 44.3 0.0999985 41.4 0.0999985H41.1V6H41.4C42.6 6 43.7 6.4 44.6 7.3C45.5 8.2 45.9 9.2 45.9 10.4C45.9 11.6 45.5 12.7 44.6 13.6C43.7 14.5 42.7 14.9 41.4 14.9H37V10.4V5.9V0H31V10.4V20.8V29.7H37V19L44.6 29.9H51.9L45.2 20.3C47.1 19.5 48.7 18.3 50 16.5Z" fill="white"/>
<path d="M21.2 21.2C19.5 22.9 17.4 23.8 14.9 23.8C12.4 23.8 10.3 22.9 8.6 21.2C6.9 19.5 6 17.4 6 14.9C6 12.5 6.9 10.4 8.6 8.60001C10.3 6.80001 12.4 6 14.9 6C17.3 6 19.4 6.90001 21.2 8.60001L23.6 2.9C22.7 2.3 21.7 1.7 20.7 1.2C18.9 0.400005 17 0 14.9 0C10.8 0 7.3 1.5 4.4 4.4C1.5 7.3 0 10.8 0 14.9C0 19 1.5 22.5 4.4 25.4C7.3 28.3 10.8 29.8 14.9 29.8C16.9 29.8 18.9 29.4 20.7 28.6C21.8 28.1 22.7 27.6 23.6 26.9L21.2 21.2Z" fill="white"/>
</svg>
