<svg width="36" height="70" viewBox="0 0 36 70" fill="none" xmlns="http://www.w3.org/2000/svg">
<path d="M17.9826 28C16.2749 28 14.8809 26.6 14.8809 24.885V18.97C14.8809 17.255 16.2749 15.855 17.9826 15.855C19.6902 15.855 21.0842 17.255 21.0842 18.97V24.885C21.0842 26.6 19.6902 28 17.9826 28ZM21.0842 60.585C29.3088 60.585 36 53.865 36 45.605V24.395C36 16.135 29.3088 9.415 21.0842 9.415H14.9158C6.69119 9.415 0 16.135 0 24.395V45.605C0 53.865 6.69119 60.585 14.9158 60.585H21.0842ZM21.0842 11.305C28.2982 11.305 34.153 17.185 34.153 24.43V45.64C34.153 52.885 28.2982 58.765 21.0842 58.765H14.9158C7.70184 58.765 1.84705 52.885 1.84705 45.64V24.395C1.84705 17.15 7.70184 11.27 14.9158 11.27H21.0842V11.305ZM21.363 6.16L22.757 4.76L17.9826 0L13.243 4.76L14.637 6.16L17.9826 2.8L21.363 6.16ZM17.9826 70L22.7222 65.24L21.3282 63.84L17.9826 67.2L14.637 63.84L13.243 65.24L17.9826 70Z" fill="#FF003C"/>
</svg>
