<svg width="134" height="102" viewBox="0 0 134 102" fill="none"
                            xmlns="http://www.w3.org/2000/svg">
                            <path
                                d="M95.2725 17.2597C92.1771 16.2279 88.6751 15.3211 84.7041 14.602L86.0173 11.5377C86.7052 9.94309 87.9247 8.59859 89.4255 7.72309L102.746 0L95.2725 17.2597Z"
                                fill="white" />
                            <path
                                d="M78.7321 55.3762L72.7287 69.2278L72.4786 69.8531C70.4774 70.1658 68.2262 70.3534 65.756 70.2596C64.1614 70.1971 62.6918 70.0407 61.316 69.8531L55.0312 55.3762C58.502 55.9703 62.4417 56.3142 66.9129 56.3142C71.3217 56.3455 75.2614 55.9703 78.7321 55.3762Z"
                                fill="white" />
                            <path
                                d="M101.589 37.3344C101.526 37.522 97.7742 48.247 80.1706 52.0305C76.6686 52.781 72.6038 53.25 67.9137 53.3125C67.5697 53.3125 67.2258 53.3125 66.8506 53.3125C66.4754 53.3125 66.1314 53.3125 65.7875 53.3125C61.0974 53.25 57.0326 52.781 53.5306 52.0305C35.9582 48.247 32.2061 37.522 32.1123 37.3344C32.2374 37.4595 36.396 41.837 50.0286 44.0258C53.4681 44.5887 57.5016 44.9639 62.223 45.1515C63.6926 45.214 65.2247 45.214 66.8506 45.214C68.4452 45.214 70.0086 45.1827 71.4782 45.1515L72.7914 42.0872L75.6055 35.8335C77.0751 32.5503 65.9438 28.8919 65.9438 28.8919C77.9193 27.6725 89.1444 30.9869 89.3633 31.0182L85.0796 40.7114L83.6413 44.0258C97.3052 41.8683 101.464 37.4595 101.589 37.3344Z"
                                fill="white" />
                            <path
                                d="M113.689 34.9893C113.533 34.8642 108.218 29.9551 90.8954 27.3598C87.6123 26.8595 83.8914 26.453 79.7016 26.1716C75.8244 25.9215 71.572 25.7651 66.8193 25.7651C62.0979 25.7651 57.8143 25.9215 53.9371 26.1716L55.2191 29.1109L57.6579 34.7079C59.0024 37.8347 62.6607 40.5238 66.194 42.181C66.6005 42.3686 66.8193 42.4624 66.8193 42.4624C56.845 42.6813 48.2464 40.0235 48.2464 40.0235L43.994 30.2365L42.7433 27.3598C25.421 29.9551 20.1056 34.8642 19.9492 34.9893C20.043 34.8017 23.7326 25.5775 39.6165 20.1368L38.3658 17.2914L30.8616 0.062561L44.1816 7.78584C45.6824 8.66136 46.9019 10.0059 47.5898 11.6006L48.903 14.6649L50.1537 17.5103C54.9376 16.6973 60.4408 16.2283 66.7881 16.2283C73.1354 16.2283 78.6385 16.6973 83.4224 17.5103C87.4247 18.1982 90.9266 19.105 93.9909 20.1368C109.906 25.5775 113.627 34.7704 113.689 34.9893Z"
                                fill="white" />
                            <path
                                d="M10.8186 85.8885L8.37971 101.647H2.84535L0 85.8885H3.3769L5.5969 98.3955L7.47295 85.8885H10.8186Z"
                                fill="white" />
                            <path d="M29.5796 85.8885L29.7672 101.647H26.0151L25.8275 87.0141L25.1709 85.8885H29.5796Z"
                                fill="white" />
                            <path
                                d="M56.1568 87.3893C56.1568 87.4519 56.1881 87.5457 56.1881 87.6082L56.2194 90.9851C56.0943 92.2358 55.5002 93.0175 54.656 93.549L56.6258 101.647H52.6236L50.8101 94.3933H49.2154L49.3092 101.647H45.5571L45.3695 87.0141L44.7129 85.8885H53.6554C54.1244 85.8885 55.3126 86.0136 55.9067 86.7327C56.063 86.9829 56.1256 87.2017 56.1568 87.3893ZM52.436 88.4837H49.1529L49.1842 91.7668H51.1853C51.9044 91.7668 52.4672 91.204 52.4672 90.4848L52.436 88.4837Z"
                                fill="white" />
                            <path
                                d="M75.5113 88.4837L75.5426 91.7668H79.7637L78.8882 94.362H75.5738L75.6364 99.0209H80.1702L82.7028 98.2705L81.6085 101.616H71.9155L71.7279 86.9829L71.0713 85.8572H82.5465L81.671 88.4525H75.5113V88.4837Z"
                                fill="white" />
                            <path
                                d="M108.217 85.8885L104.058 95.769L104.121 101.647H100.369L100.306 95.769L95.8975 85.8885H99.6496L102.12 92.1107L104.465 85.8885H108.217Z"
                                fill="white" />
                            <path
                                d="M126.571 88.4837L126.602 91.7668H130.823L129.948 94.362H126.633L126.696 99.0209H131.23L133.762 98.2705L132.668 101.616H123.006L122.819 86.9829L122.162 85.8572H133.637L132.762 88.4525H126.571V88.4837Z"
                                fill="white" />
                        </svg>